<svg xmlns:xlink="http://www.w3.org/1999/xlink"  width="1155" height="317" fill="none" xmlns="http://www.w3.org/2000/svg" preserveAspectRatio="none"><path d="M912.543 223.811c-.645.309-2.111-.069-2.884-.345-.778-.272-1.503-.469-1.759-1.283-.256-.82.101-2.73.213-3.624.107-.894-.037-1.283.453-1.746.49-.468 1.674-1.102 2.474-1.048.794.047 1.658.787 2.313 1.346.656.559 1.504 1.123 1.621 2.006.112.889-.501 2.576-.938 3.311-.438.739-1.354.873-1.685 1.107-.331.234-.208.303-.288.303m1.349-.814c-.666.479-2.937 1.155-3.844 1.101-.911-.053-1.242-.606-1.604-1.426-.363-.819-.544-2.618-.571-3.491-.026-.873-.112-1.15.405-1.746.517-.596 1.925-1.666 2.698-1.825.773-.165 1.183.335 1.94.846.763.511 2.357 1.389 2.623 2.203.261.82-.65 2.039-1.039 2.704-.384.665-1.003 1.086-1.274 1.299-.272.212-.246-.086-.347-.027" fill="#D3FFD2"/><path d="M912.319 223.897c-.752.5-1.535.473-2.271.154-.736-.319-1.658-1.315-2.138-2.065-.479-.75-.874-1.581-.741-2.432.139-.846.992-1.948 1.562-2.661.571-.713 1.136-1.427 1.861-1.607.725-.176 1.78.037 2.489.532.709.5 1.584 1.506 1.765 2.453.176.953-.395 2.406-.704 3.252-.309.851-.879 1.479-1.162 1.836-.282.357-.48.346-.522.314m.703-.66c-.703.33-1.834.74-2.66.596-.821-.144-1.695-.798-2.276-1.453-.581-.654-1.285-1.666-1.221-2.485.069-.82.88-1.655 1.626-2.427.746-.777 2.154-2.028 2.852-2.209.698-.181.837.357 1.327 1.118.491.766 1.413 2.528 1.621 3.459.208.932-.032 1.347-.384 2.124-.346.777-1.455 2.283-1.716 2.544-.262.266.17-.65.165-.958" stroke="#D3FFD2" stroke-width="2" stroke-linecap="round"/><path d="M865.978 159.082c1.311.58 4.035 2.522 7.01 3.23 2.975.708 7.538 2.076 10.848 1.022 3.311-1.054 7.784-6.126 9.015-7.334m-28.851.394c1.429.878 7.218 6.221 10.043 7.786 2.826 1.559 3.759 2.507 6.909 1.586 3.146-.915 10.033-5.322 11.974-7.105M194.26 231.082c1.311.58 4.035 2.522 7.01 3.23 2.975.708 7.538 2.076 10.849 1.022 3.31-1.054 7.783-6.126 9.014-7.334m-28.851.394c1.429.878 7.218 6.221 10.044 7.786 2.825 1.559 3.758 2.507 6.909 1.586 3.145-.915 10.033-5.322 11.973-7.105" stroke="#FFE3C7" stroke-width="2" stroke-linecap="round"/><path d="M215 77c4.446 1.117 19.666 7.1 28.403 9.27 8.738 2.178 20.285 3.136 24.022 3.78m-50.73-12.54c3.876 1.443 15.369 8.43 24.048 10.921 8.679 2.486 23.984 3.279 28.03 4.013" stroke="#E0DFFF" stroke-width="2" stroke-linecap="round"/><path d="M400.015 7.622c1.402-.65 4.676-3.63 6.781-4.444 2.106-.809 3.988-1.554 5.848-.43 1.861 1.117 4.5 5.012 5.321 7.163.815 2.15.432 3.597-.416 5.737-.842 2.14-3.854 5.811-4.649 7.1M398 8.425c1.69-.863 7.853-2.587 10.374-3.13 2.522-.537 3.22-.729 4.745-.111 1.525.612 3.401 2.139 4.414 3.794 1.013 1.65 2.074 3.603 1.669 6.12-.406 2.518-3.551 8.026-4.105 8.99" stroke="#FFF0C9" stroke-width="2" stroke-linecap="round"/><path d="M3.383 176.836c1.375-.298 5.576-2.028 8.94-1.719 3.359.309 9.473 4.156 11.232 3.566 1.765-.591-2.654-6.589-.666-7.105 1.983-.517 10.897 4.997 12.586 4.018 1.69-.979-4.813-8.382-2.452-9.889 2.362-1.511 14.335 2.465 16.622.847 2.293-1.618-2.223-8.675-2.884-10.554m-45.76 21.602c1.364.208 8.123-.303 12.026-.324 3.897-.022 9.814 1.394 11.376.207 1.557-1.192-4.078-6.961-2.026-7.35 2.047-.393 12.187 6.227 14.32 5.003 2.126-1.224-3.52-11.102-1.552-12.342 1.967-1.24 11.142 5.865 13.349 4.897 2.207-.969.048-8.957-.112-10.708" stroke="#E0DFFF" stroke-width="2" stroke-linecap="round"/><path d="M895.379 309.909c-.666-.149-1.53-.437-1.839-1.038-.304-.596-.117-1.905.005-2.544.123-.644.144-.825.736-1.288.597-.463 1.972-1.399 2.825-1.479.859-.08 1.797.516 2.314 1 .517.479.64 1.309.784 1.89.144.574.437.947.069 1.57-.368.628-1.439 1.979-2.282 2.192-.847.208-2.388-.798-2.782-.915-.39-.117.314.191.437.213m.192.356c-.704-.143-2.154-.409-2.511-.899-.352-.495.32-1.368.378-2.054.059-.687-.442-1.432-.026-2.071.415-.638 1.759-1.543 2.516-1.756.757-.218 1.455-.005 2.015.452.56.463.943 1.453 1.349 2.316.399.862 1.274 2.203 1.076 2.857-.197.655-1.519.756-2.26 1.075-.746.314-1.876.857-2.196.82-.32-.042.256-1.011.288-1.064" fill="#FFDAD6"/><path d="M896.45 309.552c-.757-.058-1.626-.484-2.111-.91-.485-.431-.666-1.117-.805-1.66-.138-.543-.469-1.065-.032-1.602.437-.538 1.861-1.426 2.655-1.623.794-.197 1.45.133 2.111.436.661.303 1.493.719 1.866 1.373.373.66.586 1.858.368 2.571-.213.718-.794 1.389-1.674 1.729-.88.336-2.937.352-3.604.298-.672-.053-.517-.457-.405-.622m3.46-.351c-.736.079-2.591.196-3.401.17-.811-.032-1.152.17-1.456-.341-.304-.516-.533-2.102-.368-2.741.171-.644.752-.67 1.387-1.112.639-.447 1.684-1.33 2.441-1.559.762-.224 1.663-.352 2.116.197.448.548.4 2.4.603 3.086.202.687.927.474.608 1.033-.326.559-2.175 2.049-2.543 2.326-.363.282.368-.533.352-.66" stroke="#FFDAD6" stroke-width="2" stroke-linecap="round"/><path d="M791.379 183.909c-.666-.149-1.53-.437-1.839-1.038-.304-.596-.117-1.905.005-2.544.123-.644.144-.825.736-1.288.597-.463 1.972-1.399 2.825-1.479.859-.08 1.797.516 2.314 1 .517.479.64 1.309.784 1.89.144.574.437.947.069 1.57-.368.628-1.439 1.979-2.282 2.192-.847.208-2.388-.798-2.782-.915-.39-.117.314.191.437.213m.192.356c-.704-.143-2.154-.409-2.511-.899-.352-.495.32-1.368.378-2.054.059-.687-.442-1.432-.026-2.071.415-.638 1.759-1.543 2.516-1.756.757-.218 1.455-.005 2.015.452.56.463.943 1.453 1.349 2.316.399.862 1.274 2.203 1.076 2.857-.197.655-1.519.756-2.26 1.075-.746.314-1.876.857-2.196.82-.32-.042.256-1.011.288-1.064" fill="#D1ECFF"/><path d="M792.45 183.552c-.757-.058-1.626-.484-2.111-.91-.485-.431-.666-1.117-.805-1.66-.138-.543-.469-1.065-.032-1.602.437-.538 1.861-1.426 2.655-1.623.794-.197 1.45.133 2.111.436.661.303 1.493.719 1.866 1.373.373.66.586 1.858.368 2.571-.213.718-.794 1.389-1.674 1.729-.88.336-2.937.352-3.604.298-.672-.053-.517-.457-.405-.622m3.46-.351c-.736.079-2.591.196-3.401.17-.811-.032-1.152.17-1.456-.341-.304-.516-.533-2.102-.368-2.741.171-.644.752-.67 1.387-1.112.639-.447 1.684-1.33 2.441-1.559.762-.224 1.663-.352 2.116.197.448.548.4 2.4.603 3.086.202.687.927.474.608 1.033-.326.559-2.175 2.049-2.543 2.326-.363.282.368-.533.352-.66" stroke="#D1ECFF" stroke-width="2" stroke-linecap="round"/><path d="M304.662 135.909c-.666-.149-1.53-.436-1.839-1.037-.304-.596-.117-1.906.005-2.544.123-.644.144-.825.736-1.288.597-.463 1.973-1.4 2.826-1.48.858-.08 1.796.516 2.313 1.001.517.479.64 1.309.784 1.889.144.575.437.947.069 1.57-.368.628-1.439 1.98-2.281 2.193-.848.207-2.389-.799-2.783-.916-.389-.117.314.192.437.213m.192.357c-.704-.144-2.154-.41-2.511-.9-.352-.495.32-1.367.378-2.054.059-.686-.442-1.432-.026-2.07.416-.639 1.759-1.544 2.516-1.756.757-.219 1.455-.006 2.015.452.56.463.944 1.453 1.349 2.315.4.862 1.274 2.203 1.077 2.858-.198.655-1.52.756-2.261 1.075-.746.314-1.876.857-2.196.82-.32-.043.256-1.012.288-1.065" fill="#FFDAD6"/><path d="M305.733 135.553c-.757-.059-1.625-.484-2.111-.91-.485-.431-.666-1.118-.805-1.661-.138-.542-.469-1.064-.032-1.602.438-.537 1.861-1.426 2.655-1.623.795-.197 1.45.133 2.111.437.661.303 1.493.718 1.866 1.373.373.66.587 1.857.368 2.57-.213.719-.794 1.389-1.674 1.73-.88.335-2.937.351-3.604.298-.671-.053-.517-.458-.405-.623m3.46-.351c-.736.08-2.591.197-3.401.17-.81-.032-1.152.171-1.456-.34-.303-.517-.533-2.102-.367-2.741.17-.644.751-.671 1.386-1.112.639-.447 1.684-1.331 2.441-1.56.763-.223 1.664-.351 2.117.197.447.548.4 2.4.602 3.087.203.686.928.474.608 1.032-.325.559-2.175 2.049-2.543 2.326-.363.282.368-.532.352-.66" stroke="#FFDAD6" stroke-width="2" stroke-linecap="round"/><path d="M397.001 93.812c-1.029-.032-2.148-.692-2.985-1.405-.832-.713-1.978-1.762-2.015-2.88-.037-1.117 1.029-2.91 1.791-3.826.762-.915 1.685-1.453 2.772-1.676 1.088-.219 2.687-.224 3.743.356 1.05.575 2.18 1.996 2.585 3.114.4 1.112.299 2.522-.165 3.576-.464 1.06-1.589 2.214-2.623 2.757-1.04.543-2.969.537-3.604.505-.634-.031-.277-.58-.192-.697m2.533-.048c-1.104.644-2.271 1.374-3.279 1.054-1.008-.32-2.228-1.996-2.772-2.97-.544-.968-.73-1.713-.48-2.852.256-1.144 1.114-3.039 1.994-4.008.879-.963 2.266-1.91 3.289-1.804 1.024.112 1.898 1.709 2.852 2.47.96.755 2.618.974 2.879 2.08.261 1.108-.693 3.513-1.306 4.556-.619 1.049-1.925 1.426-2.388 1.72-.464.287-.459-.049-.4.031M1036 314.812c-1.03-.032-2.15-.692-2.98-1.405-.84-.713-1.98-1.762-2.02-2.879-.04-1.118 1.03-2.911 1.79-3.827.76-.915 1.69-1.453 2.77-1.676 1.09-.218 2.69-.224 3.75.356 1.05.575 2.18 1.996 2.58 3.114.4 1.112.3 2.522-.16 3.576-.47 1.059-1.59 2.214-2.63 2.757-1.04.543-2.97.537-3.6.506-.63-.032-.28-.581-.19-.698m2.53-.048c-1.1.644-2.27 1.374-3.28 1.054-1.01-.319-2.23-1.996-2.77-2.97-.54-.968-.73-1.713-.48-2.852.26-1.144 1.11-3.039 1.99-4.008.88-.963 2.27-1.91 3.29-1.804 1.03.112 1.9 1.709 2.86 2.47.95.755 2.61.974 2.87 2.081.27 1.107-.69 3.512-1.3 4.555-.62 1.049-1.93 1.427-2.39 1.719-.46.288-.46-.048-.4.032" stroke="#FFE3C7" stroke-width="2" stroke-linecap="round"/><path d="M1095.59 174.109c-.02 2.287-2.29 14.198-.75 14.393 1.54.199 7.13-13.182 9.99-13.222 2.87-.036 5.23 12.462 7.2 12.987 1.96.531 2.19-10.669 4.59-9.805 2.4.867 7.36 14.332 9.82 14.996 2.46.664 2.01-11.245 4.96-11.016 2.95.225 10.36 10.233 12.75 12.373m-48.46-18.64c.3 2.169-.76 11.864.95 11.621 1.71-.238 7.16-13.343 9.32-13.079 2.16.26 2.12 14.333 3.63 14.644 1.51.308 2.53-13.963 5.42-12.795 2.9 1.173 8.99 19.183 11.97 19.826 2.98.641 3.03-15.993 5.9-15.979 2.88.019 9.61 13.64 11.34 16.072" stroke="#D3FFD2" stroke-width="2" stroke-linecap="round"/><path d="M269 239.548c1.861-1.107 8.439-3.715 11.958-6.807 3.524-3.092 7.431-10.122 9.164-11.74m-19.917 19.894c1.978-1.288 7.816-6.786 11.238-9.703 3.422-2.916 7.645-6.301 9.297-7.802M138.898 124.285c2.124.341 8.762 2.55 13.445 2.424 4.686-.122 12.283-3.032 14.652-3.168m-28.097 2.554c2.332.276 10.345-.216 14.838-.268 4.494-.052 9.895.048 12.127-.048M1080.64 77.013c2.11-.415 8.96-.613 13.43-2.367 4.47-1.753 11.12-7.194 13.37-8.15m-26.41 12.252c2.3-.549 9.88-3.817 14.18-5.434 4.3-1.618 9.51-3.407 11.63-4.278" stroke="#D1ECFF" stroke-width="2" stroke-linecap="round"/><path d="M714.986 101.486c-.698-.139-1.973-.527-2.495-1.166-.522-.644-.73-1.9-.65-2.687.08-.793.607-1.496 1.124-2.05.523-.558 1.307-1.154 1.994-1.293.688-.138 1.45.059 2.133.458.687.394 1.631 1.23 1.977 1.927.347.692.352 1.474.107 2.23-.25.76-.821 1.82-1.589 2.309-.767.485-2.319.66-3.017.607-.698-.053-1.082-.788-1.167-.926m3.417 1.208c-.645.335-1.669-.245-2.447-.734-.778-.49-1.653-1.602-2.212-2.209-.555-.601-1.323-.601-1.131-1.416.187-.814 1.6-2.873 2.266-3.459.672-.59.97-.085 1.743-.058.773.02 2.239-.245 2.9.186.661.436.805 1.426 1.082 2.416.278.99 1.013 2.847.582 3.529-.438.681-2.81.457-3.188.564-.374.106.837.117.927.085M959.986 20.486c-.698-.139-1.973-.527-2.495-1.166-.522-.644-.73-1.9-.65-2.687.08-.793.607-1.496 1.124-2.05.523-.558 1.307-1.154 1.994-1.293.688-.138 1.45.059 2.133.458.687.394 1.631 1.23 1.977 1.927.347.692.352 1.474.107 2.23-.25.76-.821 1.82-1.589 2.31-.767.484-2.319.66-3.017.606-.698-.053-1.082-.788-1.167-.926m3.417 1.208c-.645.335-1.669-.245-2.447-.734-.778-.49-1.653-1.602-2.212-2.209-.555-.601-1.323-.601-1.131-1.416.187-.814 1.6-2.873 2.266-3.459.672-.59.97-.085 1.743-.058.773.02 2.239-.245 2.9.186.661.436.805 1.426 1.082 2.416.278.99 1.013 2.847.582 3.529-.438.68-2.81.457-3.188.564-.374.106.837.117.927.085" stroke="#FFF0C9" stroke-width="2" stroke-linecap="round"/><path d="M813.567 107.461c-.826.176-1.898-.149-2.623-.362-.73-.213-1.38-.447-1.738-.91-.362-.463-.565-1.293-.421-1.863a2.455 2.455 0 0 1 1.306-1.559c.736-.362 2.149-.564 3.114-.596.965-.032 2.031-.005 2.681.394.651.399 1.157 1.314 1.216 2.001.058.686-.022 1.698-.869 2.107-.843.405-3.364.266-4.206.33-.843.069-.981.064-.837.054m1.476.143c-.826-.207-1.962-.947-2.74-1.213-.778-.266-1.866.165-1.924-.367-.054-.538 1.076-2.347 1.588-2.853.512-.5.709-.037 1.488-.165.778-.122 2.361-.708 3.188-.585.831.122 1.258.665 1.78 1.33.528.66 1.589 2.155 1.365 2.645-.219.49-1.951.117-2.682.293-.73.175-1.37.649-1.7.772-.331.122-.304-.107-.277-.038" stroke="#FFDAD6" stroke-width="2" stroke-linecap="round"/><path d="M687.812 65.691c-4.92-2.15-7.706-4.522-11.753-4.822m10.811 4.908c-3.686-1.805-7.632-4.093-11.407-6.862m.156-1.732c6.749-4.852 10.1-11.602 21.715-22.414m-22.27 23.698c8.453-8.448 13.458-15.913 21.307-24.89m2.155.057c-1.694 2.987 1.713 5.249 4.109 8.962m-6.388-7.74c.965 1.334 4.09 3.057 7.64 7.925m.655-3.179c-5.777 10.895-12.366 20.095-17.767 23.839m16.652-21.998c-2.877 6.421-7.917 11.203-16.544 23.156" stroke="#E0DFFF" stroke-width="2" stroke-linecap="round"/><path d="M847.191 55.222c3.081-1.52 13.067-4.779 18.585-7.776 5.518-2.996 11.824-8.605 14.507-10.2m-33.298 20.189c3.42-1.53 15.082-6.356 20.876-9.681 5.797-3.322 11.334-8.546 13.895-10.257" stroke="#FFE3C7" stroke-width="2" stroke-linecap="round"/><path d="M505.894 28.12c-.645-3.864-3.124-19.357-3.759-23.337m4.548 22.198C505.835 22.984 501.97 7.619 501 4" stroke="#D3FFD2" stroke-width="2" stroke-linecap="round"/><path d="M592.288 23.68c-.474.197-1.359-.08-1.951-.288-.592-.202-1.237-.5-1.594-.942-.357-.447-.475-1-.544-1.73-.075-.728-.256-2.085.112-2.644.368-.554 1.285-.676 2.1-.703.816-.026 2.197.144 2.794.548.602.4.629 1.171.81 1.863.181.692.629 1.634.283 2.278-.347.644-1.855 1.368-2.357 1.57-.506.207-.714-.34-.655-.335m-1.237.191c-.613-.266-1.759-.846-1.999-1.272-.245-.43.48-.564.544-1.304.064-.745-.629-2.538-.155-3.161.474-.617 2.202-.596 2.996-.559.789.038 1.205.218 1.743.777.544.554 1.44 1.884 1.498 2.566.064.675-.789.872-1.114 1.506-.325.628-.149 1.889-.832 2.283-.677.388-2.788.18-3.246.069-.459-.107.378-.665.496-.719" stroke="#FFF0C9" stroke-width="2" stroke-linecap="round"/><path d="M142.157 275.32c-.943.043-2.351-.415-3.028-1.011-.682-.596-.981-1.607-1.05-2.565-.064-.958.16-2.401.645-3.183.48-.777 1.413-1.299 2.25-1.495.832-.197 2.074.09 2.756.314.682.228.997.383 1.327 1.043.331.654.651 2.017.656 2.895.005.883.032 1.804-.629 2.379-.656.575-2.788.883-3.321 1.064-.528.176.165.064.149.011m-1.231-.953c-.683-.34-2.149-.293-2.522-1.016-.378-.724.005-2.432.267-3.327.266-.894.506-1.729 1.316-2.022.816-.298 2.783.213 3.572.25.789.037.64-.468 1.162-.026.523.447 1.84 1.804 1.983 2.687.15.884-.613 1.82-1.114 2.613-.495.788-.991 1.943-1.876 2.134-.885.192-3.002-.963-3.428-.989-.421-.022.89.734.88.846" stroke="#FFDAD6" stroke-width="2" stroke-linecap="round"/><path d="M227.26 314.811c-.645.309-2.111-.069-2.884-.345-.779-.272-1.504-.469-1.76-1.283-.255-.82.102-2.73.214-3.624.106-.894-.038-1.283.453-1.746.49-.468 1.674-1.102 2.473-1.048.795.047 1.658.787 2.314 1.346.656.559 1.503 1.123 1.621 2.006.112.889-.501 2.576-.939 3.311-.437.739-1.354.873-1.684 1.107-.331.234-.208.303-.288.303m1.349-.814c-.667.479-2.938 1.155-3.844 1.101-.912-.053-1.242-.606-1.605-1.426-.362-.819-.543-2.618-.57-3.491-.027-.873-.112-1.15.405-1.746.517-.596 1.925-1.666 2.698-1.825.773-.165 1.183.335 1.94.846.762.511 2.356 1.389 2.623 2.203.261.82-.65 2.039-1.04 2.704-.383.665-1.002 1.086-1.274 1.299-.272.212-.245-.086-.346-.027" fill="#D3FFD2"/><path d="M227.036 314.897c-.752.5-1.535.473-2.271.154-.736-.319-1.658-1.315-2.138-2.065s-.874-1.581-.741-2.432c.139-.846.992-1.948 1.562-2.661.57-.713 1.136-1.427 1.861-1.607.725-.176 1.78.037 2.489.532.709.5 1.583 1.506 1.765 2.453.176.953-.395 2.406-.704 3.252-.309.851-.88 1.479-1.162 1.836-.283.357-.48.346-.523.314m.704-.66c-.704.33-1.834.74-2.66.596-.821-.144-1.695-.798-2.276-1.453-.581-.654-1.285-1.666-1.221-2.485.069-.82.879-1.655 1.626-2.427.746-.777 2.154-2.028 2.852-2.209.698-.181.837.357 1.327 1.118.491.766 1.413 2.528 1.621 3.459.208.932-.032 1.347-.384 2.124-.346.777-1.455 2.283-1.717 2.544-.261.266.171-.65.166-.958M1055.16 243.277c3.9-.164 19.55-.704 23.56-.84m-22.61 1.848c4.08-.364 19.87-2.417 23.61-2.965" stroke="#D3FFD2" stroke-width="2" stroke-linecap="round"/><path d="M116.768 28.251c-.614 2.148-5.847 12.592-4.439 13.304 1.409.717 10.163-9.971 12.886-9.025 2.726.952 1.736 13.543 3.462 14.713 1.724 1.176 4.838-9.3 6.893-7.66 2.051 1.643 3.264 16.036 5.426 17.508 2.161 1.473 4.809-9.907 7.549-8.675 2.738 1.226 7.174 13.205 8.883 16.044m-41.103-34.228c-.278 2.147-3.791 10.918-2.108 11.277 1.685.364 10.239-10.111 12.217-9.12 1.975.986-1.695 14.237-.348 15.048 1.352.81 6.004-12.29 8.447-10.194 2.445 2.102 3.56 21.169 6.215 22.799 2.659 1.628 7.006-14.03 9.725-13.029 2.722 1.007 5.581 16.158 6.588 19.044" stroke="#FFE3C7" stroke-width="2" stroke-linecap="round"/><path d="M754.177 35.342c1.641 1.359 8.644 9.79 9.886 8.933 1.247-.856-4.451-12.24-2.432-14.07 2.024-1.83 12.77 4.02 14.555 3.09 1.789-.927-6.16-7.652-3.814-8.662 2.345-1.005 15.643 3.78 17.885 2.617 2.242-1.163-6.711-7.872-4.432-9.6 2.274-1.73 14.824-.527 18.083-.775m-48.165 19.62c1.786 1.086 8.049 7.451 9.096 6.23 1.053-1.22-4.541-12.358-2.806-13.565 1.73-1.207 11.901 7.081 13.204 6.314 1.303-.772-8.309-9.796-5.391-10.937 2.924-1.141 20.327 5.597 22.922 4.097 2.596-1.504-9.418-11.307-7.353-13.111 2.071-1.804 16.755 1.95 19.751 2.29" stroke="#D1ECFF" stroke-width="2" stroke-linecap="round"/><path d="M205.284 152.81c-1.029-.032-2.149-.692-2.986-1.405-.831-.713-1.978-1.762-2.015-2.879-.037-1.118 1.029-2.911 1.791-3.827.763-.915 1.685-1.453 2.772-1.676 1.088-.218 2.687-.224 3.743.356 1.05.575 2.18 1.996 2.585 3.114.4 1.112.299 2.522-.165 3.576-.464 1.059-1.589 2.214-2.623 2.757-1.039.543-2.969.537-3.604.506-.634-.032-.277-.581-.191-.698m2.532-.048c-1.104.644-2.271 1.374-3.279 1.054-1.007-.319-2.228-1.996-2.772-2.969-.544-.969-.73-1.714-.48-2.853.256-1.144 1.114-3.039 1.994-4.008.88-.963 2.266-1.91 3.289-1.804 1.024.112 1.898 1.709 2.852 2.47.96.755 2.618.974 2.879 2.081.261 1.107-.693 3.512-1.306 4.555-.618 1.049-1.924 1.427-2.388 1.719-.464.288-.459-.048-.4.032M68.001 89.811c-1.029-.032-2.148-.692-2.985-1.405-.832-.713-1.978-1.762-2.015-2.88-.037-1.117 1.029-2.91 1.791-3.826.762-.915 1.685-1.453 2.772-1.676 1.088-.218 2.687-.224 3.743.356 1.05.575 2.18 1.996 2.585 3.114.4 1.112.299 2.522-.165 3.576-.464 1.06-1.589 2.214-2.623 2.757-1.04.543-2.97.538-3.604.505-.634-.031-.277-.58-.192-.697m2.532-.048c-1.103.644-2.27 1.373-3.278 1.054-1.008-.32-2.228-1.996-2.772-2.97-.544-.968-.73-1.713-.48-2.852.256-1.144 1.114-3.039 1.994-4.008.88-.963 2.266-1.91 3.29-1.804 1.023.112 1.897 1.709 2.851 2.47.96.755 2.618.974 2.879 2.08.261 1.108-.693 3.513-1.306 4.556-.619 1.049-1.925 1.427-2.389 1.72-.463.287-.458-.049-.4.031M1054 136.812c-1.03-.032-2.15-.692-2.98-1.405-.84-.713-1.98-1.762-2.02-2.879-.04-1.118 1.03-2.911 1.79-3.827.76-.915 1.69-1.453 2.77-1.676 1.09-.218 2.69-.224 3.75.356 1.05.575 2.18 1.996 2.58 3.114.4 1.112.3 2.522-.16 3.576-.47 1.059-1.59 2.214-2.63 2.757-1.04.543-2.97.537-3.6.506-.63-.032-.28-.581-.19-.698m2.53-.048c-1.1.644-2.27 1.374-3.28 1.054-1.01-.319-2.23-1.996-2.77-2.97-.54-.968-.73-1.713-.48-2.852.26-1.144 1.11-3.039 1.99-4.008.88-.963 2.27-1.91 3.29-1.804 1.03.112 1.9 1.709 2.86 2.47.95.755 2.61.974 2.87 2.081.27 1.107-.69 3.512-1.3 4.555-.62 1.049-1.93 1.427-2.39 1.719-.46.288-.46-.048-.4.032" stroke="#FFE3C7" stroke-width="2" stroke-linecap="round"/><path d="M136.844 171.672c1.973 4.796 2.288 8.384 4.932 11.218m-4.208-10.676c1.343 3.74 2.534 8.012 3.27 12.537m-1.315 1.209c-8.133-.68-15.191 2.266-30.9 2.958m32.184-3.571c-11.835.942-20.556 3.361-32.334 5.092m-1.479-1.431c3.271-1.167 2.442-5.072 3.336-9.424m-.879 9.968c.247-1.63-.758-4.946.124-10.913m-2.672 1.981c11.65-4.516 22.695-7.227 29.107-6.578m-27.041 5.904c6.495-3.001 13.374-3.369 27.77-6.85M856.087 261.323c-2.661 6.456-5.311 10.437-6.043 15.335m6.027-14.239c-2.186 4.892-4.878 10.229-8.027 15.497m-1.701.3c-4.083-6.668-10.413-8.76-19.881-19.545m21.095 19.845c-7.466-7.685-14.326-11.545-22.379-18.365m.288-2.579c2.777 1.177 5.385-3.511 9.324-7.404m-8.358 9.773c1.425-1.522 3.469-5.724 8.675-11.313m-3.08.112c10.177 3.816 18.588 9.073 21.717 14.448m-20.013-13.638c6.056 1.621 10.253 6.276 21.173 13.184" stroke="#E0DFFF" stroke-width="2" stroke-linecap="round"/><path d="M977.009 288.68c-2.977-1.88-11.287-8.615-16.839-11.877-5.551-3.261-13.647-6.15-16.456-7.683m35.186 18.874c-3.176-2.147-13.7-9.62-19.673-12.976-5.97-3.361-13.319-5.783-16.152-7.173M947.015 77.446c1.402-.65 4.676-3.63 6.781-4.444 2.106-.81 3.988-1.554 5.848-.431 1.861 1.117 4.5 5.013 5.321 7.163.815 2.15.432 3.598-.416 5.737-.842 2.14-3.854 5.812-4.649 7.1M945 78.249c1.69-.862 7.853-2.586 10.374-3.129 2.522-.538 3.22-.73 4.745-.112 1.525.612 3.401 2.14 4.414 3.795 1.013 1.65 2.074 3.603 1.669 6.12-.406 2.517-3.551 8.026-4.105 8.99" stroke="#D1ECFF" stroke-width="2" stroke-linecap="round"/></svg>
